name Walk6.mot
datacolumns 19
datarows 17
range 2.03800000 2.05400000
endheader

                time	   L_ground_force_vx	   L_ground_force_vy	   L_ground_force_vz	   L_ground_force_px	   L_ground_force_py	   L_ground_force_pz	   R_ground_force_vx	   R_ground_force_vy	   R_ground_force_vz	   R_ground_force_px	   R_ground_force_py	   R_ground_force_pz	   L_ground_torque_x	   L_ground_torque_y	   L_ground_torque_z	   R_ground_torque_x	   R_ground_torque_y	   R_ground_torque_z	
          2.03800000	        -34.12555745	        547.55462540	         18.25773503	          0.51140455	          0.00000000	          0.24243586	          0.00611953	          0.00131128	          0.00215526	         -0.00002748	          0.00000000	          0.00014921	          0.00000000	         -0.96361172	          0.00000000	          0.00000000	          0.00004212	          0.00000000	
          2.03900000	        -33.73241598	        546.09219568	         18.27172580	          0.51183220	          0.00000000	          0.24239573	          0.00461771	         -0.00156696	          0.00193982	         -0.00002521	          0.00000000	          0.00013871	          0.00000000	         -0.97927104	          0.00000000	          0.00000000	          0.00004565	          0.00000000	
          2.04000000	        -33.34707360	        544.67739309	         18.29959417	          0.51226015	          0.00000000	          0.24235412	          0.00322613	         -0.00419456	          0.00173536	         -0.00002304	          0.00000000	          0.00012857	          0.00000000	         -0.99417095	          0.00000000	          0.00000000	          0.00004870	          0.00000000	
          2.04100000	        -32.96919104	        543.31045896	         18.34136301	          0.51268831	          0.00000000	          0.24231106	          0.00194067	         -0.00658289	          0.00154173	         -0.00002096	          0.00000000	          0.00011882	          0.00000000	         -1.00830653	          0.00000000	          0.00000000	          0.00005132	          0.00000000	
          2.04200000	        -32.59841567	        541.99166035	         18.39701328	          0.51311661	          0.00000000	          0.24226655	          0.00075718	         -0.00874329	          0.00135873	         -0.00001898	          0.00000000	          0.00010944	          0.00000000	         -1.02167522	          0.00000000	          0.00000000	          0.00005352	          0.00000000	
          2.04300000	        -32.23438266	        540.72128942	         18.46648432	          0.51354497	          0.00000000	          0.24222062	         -0.00032855	         -0.01068696	          0.00118617	         -0.00001710	          0.00000000	          0.00010045	          0.00000000	         -1.03427649	          0.00000000	          0.00000000	          0.00005532	          0.00000000	
          2.04400000	        -31.87671632	        539.49966074	         18.54967425	          0.51397328	          0.00000000	          0.24217327	         -0.00132072	         -0.01242499	          0.00102379	         -0.00001531	          0.00000000	          0.00009184	          0.00000000	         -1.04611168	          0.00000000	          0.00000000	          0.00005677	          0.00000000	
          2.04500000	        -31.52503133	        538.32710711	         18.64644037	          0.51440143	          0.00000000	          0.24212454	         -0.00222354	         -0.01396829	          0.00087135	         -0.00001362	          0.00000000	          0.00008362	          0.00000000	         -1.05718386	          0.00000000	          0.00000000	          0.00005788	          0.00000000	
          2.04600000	        -31.17893390	        537.20397497	         18.75659970	          0.51482932	          0.00000000	          0.24207446	         -0.00304120	         -0.01532760	          0.00072857	         -0.00001202	          0.00000000	          0.00007578	          0.00000000	         -1.06749796	          0.00000000	          0.00000000	          0.00005867	          0.00000000	
          2.04700000	        -30.83802291	        536.13062038	         18.87992917	          0.51525682	          0.00000000	          0.24202308	         -0.00377785	         -0.01651340	          0.00059519	         -0.00001051	          0.00000000	          0.00006832	          0.00000000	         -1.07706103	          0.00000000	          0.00000000	          0.00005918	          0.00000000	
          2.04800000	        -30.50189087	        535.10740649	         19.01616576	          0.51568382	          0.00000000	          0.24197042	         -0.00443759	         -0.01753599	          0.00047089	         -0.00000909	          0.00000000	          0.00006124	          0.00000000	         -1.08588273	          0.00000000	          0.00000000	          0.00005942	          0.00000000	
          2.04900000	        -30.17012505	        534.13470207	         19.16500631	          0.51611018	          0.00000000	          0.24191655	         -0.00502446	         -0.01840537	          0.00035539	         -0.00000776	          0.00000000	          0.00005452	          0.00000000	         -1.09397581	          0.00000000	          0.00000000	          0.00005941	          0.00000000	
          2.05000000	        -29.84230854	        533.21288094	         19.32610740	          0.51653577	          0.00000000	          0.24186151	         -0.00554246	         -0.01913128	          0.00024836	         -0.00000651	          0.00000000	          0.00004818	          0.00000000	         -1.10135661	          0.00000000	          0.00000000	          0.00005918	          0.00000000	
          2.05100000	        -29.51802151	        532.34232137	         19.49908524	          0.51696045	          0.00000000	          0.24180536	         -0.00599546	         -0.01972318	          0.00014949	         -0.00000534	          0.00000000	          0.00004219	          0.00000000	         -1.10804537	          0.00000000	          0.00000000	          0.00005875	          0.00000000	
          2.05200000	        -29.19684260	        531.52340528	         19.68351570	          0.51738408	          0.00000000	          0.24174817	         -0.00638729	         -0.02019022	          0.00005847	         -0.00000425	          0.00000000	          0.00003655	          0.00000000	         -1.11406649	          0.00000000	          0.00000000	          0.00005813	          0.00000000	
          2.05300000	        -28.87835062	        530.75651665	         19.87893440	          0.51780651	          0.00000000	          0.24169000	         -0.00672168	         -0.02054126	         -0.00002504	         -0.00000323	          0.00000000	          0.00003125	          0.00000000	         -1.11944844	          0.00000000	          0.00000000	          0.00005734	          0.00000000	
          2.05400000	        -28.56212638	        530.04203893	         20.08483689	          0.51822756	          0.00000000	          0.24163092	         -0.00700223	         -0.02078483	         -0.00010135	         -0.00000230	          0.00000000	          0.00002628	          0.00000000	         -1.12422351	          0.00000000	          0.00000000	          0.00005641	          0.00000000	
